# xmcd CD database file
#
# Track frame offsets:
#       150
#       22902
#       51614
#       95790
#       135288
#       143972
#       156048
#       174076
#       182210
#       208669
#       232292
#       256709
#
# Disc length: 3755 seconds
#
# Revision: 4
# Processed by: cddbd v1.5.2PL0 Copyright (c) Steve Scherf et al.
# Submitted via: CDDBEditor PBVER-PBREV
#
DISCID=a50ea90c
DTITLE=200 ans de Musique à Versailles - Vol.16 - L'Opéra français aux portes du Romantisme
DYEAR=2007
DGENRE=Baroque
TTITLE0=Antonio Sacchini (1730-1786) - Dardanus - Ouverture
TTITLE1=Rodolphe Kreutzer (1766-1831) - La Mort d'Abel - Récitatif et air d'Adam - L'aurore a dissipé les ombres
TTITLE2=Pierre-Alexandre Monsigny (1729-1817) - Le Déserteur - Air d'Alexis - Il m'eut été si doux de t'embrasser
TTITLE3=Jean-François Lesueur (1760-1837) - La Caverne - Récitatif et air de Rolando - Dans ce péril certain
TTITLE4=François-Joseph Gossec (1734-1829) - Suite de Sabinus - Tambourin
TTITLE5=François-Joseph Gossec (1734-1829) - Suite de Sabinus - Air des vieillards
TTITLE6=François-Joseph Gossec (1734-1829) - Suite de Sabinus - Air en passacaille
TTITLE7=François-Joseph Gossec (1734-1829) - Suite de Sabinus - Gigue pour les enfants
TTITLE8=François-André Danican Philidor (1726-1795) - Ernelinde princesse de Norvège - Air de Ricimer - Transports, tourments jaloux
TTITLE9=André Erneste Modeste Grétry (1741-1813) - Le Huron - Ouverture
TTITLE10=André Erneste Modeste Grétry (1741-1813) - La Fausse Magie - Air de Lucette - Comme un éclair
TTITLE11=André Erneste Modeste Grétry (1741-1813) - L'Amant jaloux - Air d'Isabelle - Ô douce nuit, sous ton ombre paisible
EXTD=
EXTT0=
EXTT1=
EXTT2=
EXTT3=
EXTT4=
EXTT5=
EXTT6=
EXTT7=
EXTT8=
EXTT9=
EXTT10=
EXTT11=
PLAYORDER=
